<svg width="165" height="176" viewBox="0 0 165 176" fill="none" xmlns="http://www.w3.org/2000/svg">
<path d="M0 0H165V165H0V0Z" fill="black"/>
<rect x="31.5547" y="102.538" width="29" height="11.716" fill="white"/>
<rect x="100.104" y="56.6035" width="29" height="11.716" fill="white"/>
<path d="M33.5347 57.5C33.5347 49.46 35.6347 42.38 39.8347 36.26C44.0347 30.02 49.7947 25.16 57.1147 21.68C64.5547 18.08 73.0147 16.28 82.4947 16.28C92.0947 16.28 100.375 17.96 107.335 21.32C114.295 24.68 119.635 29.42 123.355 35.54C127.195 41.66 129.115 48.92 129.115 57.32H100.135C100.135 52.64 98.5147 48.98 95.2747 46.34C92.0347 43.58 87.6547 42.2 82.1347 42.2C76.2547 42.2 71.5147 43.46 67.9147 45.98C64.4347 48.5 62.6947 51.98 62.6947 56.42C62.6947 60.5 63.7747 63.62 65.9347 65.78C68.0947 67.94 71.5147 69.5 76.1947 70.46L96.1747 74.6C108.055 77 116.875 81.2 122.635 87.2C128.395 93.08 131.275 101.3 131.275 111.86C131.275 120.38 129.175 127.88 124.975 134.36C120.775 140.72 114.835 145.64 107.155 149.12C99.5947 152.6 90.7147 154.34 80.5147 154.34C70.6747 154.34 62.0347 152.66 54.5947 149.3C47.2747 145.94 41.5747 141.2 37.4947 135.08C33.5347 128.84 31.5547 121.58 31.5547 113.3H60.5347C60.5347 118.1 62.2747 121.82 65.7547 124.46C69.2347 127.1 74.2147 128.42 80.6947 128.42C87.2947 128.42 92.5147 127.22 96.3547 124.82C100.195 122.3 102.115 118.94 102.115 114.74C102.115 111.02 101.155 108.14 99.2347 106.1C97.4347 104.06 94.3147 102.62 89.8747 101.78L69.5347 97.64C57.6547 95.24 48.6547 90.68 42.5347 83.96C36.5347 77.24 33.5347 68.42 33.5347 57.5Z" fill="white"/>
<path d="M69.4585 159.486L66.5627 162.246L23.7969 111.279L26.6928 108.519L69.4585 159.486ZM77.3691 160.113L74.4739 162.872L23.5851 102.226L26.4809 99.4658L77.3691 160.113ZM83.5207 158.643L80.6256 161.404L29.736 100.757L32.6318 97.9968L83.5207 158.643ZM90.9042 158.642L88.0084 161.402L30.4341 92.7872L33.3299 90.0273L90.9042 158.642Z" fill="black"/>
</svg>
