<svg width="188" height="188" viewBox="0 0 188 188" fill="none" xmlns="http://www.w3.org/2000/svg">
<circle cx="94" cy="94" r="94" fill="black"/>
<path d="M98.1377 162.9C96.4476 163.005 94.7178 163.06 92.9482 163.06C83.1083 163.06 74.4683 161.38 67.0283 158.02C59.7084 154.66 54.0087 149.92 49.9287 143.8C47.6997 140.287 46.0974 136.452 45.123 132.293L98.1377 162.9ZM110.036 161.141C108.366 161.55 106.647 161.895 104.877 162.173L44.2588 127.176C44.1128 125.819 44.0276 124.432 44 123.015L110.036 161.141ZM119.506 157.876C118.151 158.496 116.755 159.061 115.315 159.57L50.2754 122.02H57.3994L119.506 157.876ZM99.3086 137.37L127.238 153.495C126.129 154.276 124.969 155.016 123.756 155.711L91.5381 137.11C92.0576 137.129 92.5875 137.14 93.1279 137.14C94.9985 137.14 96.7584 137.042 98.4072 136.85L99.3086 137.37ZM94.9287 25C104.529 25 112.809 26.6801 119.769 30.04C126.728 33.4 132.068 38.1399 135.788 44.2598C139.628 50.3798 141.548 57.64 141.548 66.04H112.568C112.568 61.36 110.948 57.6996 107.708 55.0596C104.468 52.2997 100.088 50.9199 94.5684 50.9199C88.6884 50.9199 83.9486 52.1802 80.3486 54.7002C76.8687 57.2202 75.1279 60.6997 75.1279 65.1396C75.1279 69.2196 76.2082 72.34 78.3682 74.5C80.5281 76.6599 83.9482 78.2197 88.6279 79.1797L108.608 83.3193C120.488 85.7193 129.308 89.9199 135.068 95.9199C140.828 101.8 143.708 110.02 143.708 120.58C143.708 129.1 141.608 136.6 137.408 143.08C135.506 145.961 133.245 148.544 130.629 150.834L106.689 137.013L104.264 135.611C105.94 135.066 107.448 134.377 108.788 133.54C112.628 131.02 114.548 127.66 114.548 123.46C114.548 119.74 113.588 116.859 111.668 114.819C109.868 112.78 106.748 111.34 102.309 110.5L81.9688 106.359C70.0889 103.959 61.0887 99.3996 54.9688 92.6797C48.9688 85.9597 45.9688 77.1397 45.9688 66.2197C45.9688 58.1797 48.0686 51.0995 52.2686 44.9795C56.4685 38.7397 62.2281 33.8794 69.5479 30.3994C76.9879 26.7994 85.4487 25 94.9287 25ZM72.9697 122.163C72.9819 123.834 73.2069 125.373 73.6445 126.779L65.3994 122.02H72.7207L72.9697 122.163Z" fill="white"/>
</svg>
