<svg width="781" height="139" viewBox="0 0 781 139" fill="none" xmlns="http://www.w3.org/2000/svg">
<path d="M50.9395 0C60.5393 0 68.8193 1.68012 75.7793 5.04004C82.7393 8.40004 88.0798 13.1398 91.7998 19.2598C95.6398 25.3798 97.5596 32.6401 97.5596 41.04H68.5801C68.5801 36.36 66.9597 32.6996 63.7197 30.0596C60.4798 27.2997 56.0999 25.92 50.5801 25.9199C44.7001 25.9199 39.9594 27.1802 36.3594 29.7002C32.8797 32.2202 31.1397 35.6999 31.1396 40.1396C31.1396 44.2196 32.2199 47.34 34.3799 49.5C36.5399 51.6599 39.9599 53.2197 44.6396 54.1797L64.6201 58.3193C76.5 60.7193 85.3201 64.92 91.0801 70.9199C96.8399 76.7999 99.7197 85.0202 99.7197 95.5801C99.7197 104.1 97.6199 111.6 93.4199 118.08C89.2199 124.44 83.2795 129.36 75.5996 132.84C68.0397 136.32 59.1598 138.06 48.96 138.06C39.12 138.06 30.48 136.379 23.04 133.02C15.72 129.66 10.0195 124.92 5.93945 118.8C1.97949 112.56 0 105.299 0 97.0195H28.9795C28.9795 101.82 30.7202 105.54 34.2002 108.18C37.6802 110.82 42.6599 112.14 49.1396 112.14C55.7396 112.14 60.9598 110.94 64.7998 108.54C68.6397 106.02 70.5595 102.66 70.5596 98.46C70.5596 94.74 69.5997 91.8593 67.6797 89.8193C65.8797 87.7795 62.7592 86.34 58.3193 85.5L37.9795 81.3594C26.0997 78.9594 17.0994 74.3996 10.9795 67.6797C4.97958 60.9597 1.97949 52.1396 1.97949 41.2197C1.97949 33.1798 4.07932 26.0995 8.2793 19.9795C12.4793 13.7395 18.2396 8.87941 25.5596 5.39941C32.9995 1.79946 41.4596 3.89629e-05 50.9395 0ZM208.005 42.8398C216.765 42.8398 224.146 44.3995 230.146 47.5195C236.265 50.6395 240.885 55.2002 244.005 61.2002C247.245 67.2002 248.865 74.5203 248.865 83.1602V135.72H224.385L222.585 123.84C221.145 127.92 217.725 131.34 212.325 134.1C207.045 136.74 201.045 138.06 194.325 138.06C184.845 138.06 177.286 135.479 171.646 130.319C166.126 125.039 163.365 118.02 163.365 109.26C163.365 100.98 166.185 94.3799 171.825 89.46C177.585 84.54 185.865 81.6594 196.665 80.8193L221.865 78.8398V77.3994C221.865 74.3996 221.265 71.9395 220.065 70.0195C218.865 67.9797 217.126 66.4795 214.846 65.5195C212.686 64.4396 209.925 63.8994 206.565 63.8994C200.686 63.8994 196.185 64.9797 193.065 67.1396C190.065 69.2996 188.565 72.42 188.565 76.5H165.525C165.525 69.66 167.265 63.7197 170.745 58.6797C174.225 53.6397 179.145 49.7395 185.505 46.9795C191.985 44.2195 199.485 42.8399 208.005 42.8398ZM299.167 42.8398C312.487 42.8399 323.286 46.2598 331.566 53.0996C339.846 59.9396 344.407 69.24 345.247 81H317.347C316.387 76.4401 314.467 73.0799 311.587 70.9199C308.827 68.76 305.047 67.6797 300.247 67.6797C296.407 67.6797 292.986 68.6396 289.986 70.5596C287.106 72.3596 284.887 74.9399 283.327 78.2998C281.767 81.6597 280.986 85.6795 280.986 90.3594C280.986 95.1592 281.707 99.2994 283.146 102.779C284.706 106.139 286.867 108.72 289.627 110.52C292.507 112.32 295.927 113.22 299.887 113.22C304.807 113.22 308.707 112.139 311.587 109.979C314.587 107.699 316.507 104.339 317.347 99.8994H345.247C344.647 107.459 342.307 114.12 338.227 119.88C334.267 125.52 328.987 129.96 322.387 133.2C315.787 136.44 308.287 138.06 299.887 138.06C290.407 138.06 282.127 136.08 275.047 132.12C268.087 128.16 262.687 122.64 258.847 115.56C255.007 108.36 253.087 99.9593 253.087 90.3594C253.087 81.1196 255.067 72.9597 259.026 65.8799C262.986 58.68 268.387 53.0399 275.227 48.96C282.187 44.88 290.167 42.8398 299.167 42.8398ZM476.685 42.8398C490.005 42.8398 500.805 46.2596 509.085 53.0996C517.365 59.9396 521.925 69.24 522.765 81H494.865C493.905 76.44 491.984 73.0799 489.104 70.9199C486.344 68.76 482.565 67.6797 477.765 67.6797C473.925 67.6797 470.505 68.6397 467.505 70.5596C464.625 72.3596 462.405 74.9398 460.845 78.2998C459.285 81.6597 458.505 85.6796 458.505 90.3594C458.505 95.1593 459.225 99.2994 460.665 102.779C462.225 106.139 464.385 108.72 467.145 110.52C470.024 112.319 473.444 113.22 477.404 113.22C482.324 113.22 486.224 112.139 489.104 109.979C492.104 107.699 494.025 104.339 494.865 99.8994H522.765C522.165 107.459 519.825 114.12 515.745 119.88C511.785 125.52 506.504 129.96 499.904 133.2C493.304 136.44 485.804 138.06 477.404 138.06C467.924 138.06 459.644 136.08 452.564 132.12C445.605 128.16 440.205 122.64 436.365 115.56C432.525 108.36 430.604 99.9594 430.604 90.3594C430.605 81.1195 432.585 72.9598 436.545 65.8799C440.505 58.6799 445.905 53.04 452.745 48.96C459.705 44.8801 467.685 42.8399 476.685 42.8398ZM571.965 42.8398C581.445 42.8398 589.605 44.8193 596.445 48.7793C603.285 52.6193 608.565 58.1398 612.285 65.3398C616.005 72.4198 617.865 80.8798 617.865 90.7197V97.7393L552.463 98.043C553.179 102.937 554.7 106.796 557.025 109.62C560.505 113.58 565.845 115.56 573.045 115.56C578.325 115.56 582.706 114.659 586.186 112.859C589.665 111.059 591.886 108.54 592.846 105.3H618.226C616.666 115.26 611.745 123.239 603.465 129.239C595.185 135.119 584.865 138.06 572.505 138.06C563.505 138.06 555.465 136.019 548.385 131.939C541.425 127.86 535.905 122.28 531.825 115.2C527.865 108 525.885 99.7799 525.885 90.54C525.885 81.18 527.806 72.9599 531.646 65.8799C535.606 58.6799 541.065 53.04 548.025 48.96C554.985 44.88 562.965 42.8399 571.965 42.8398ZM661.28 42.8398C668.24 42.8398 674.361 44.1001 679.641 46.6201C685.04 49.14 689.24 52.6795 692.24 57.2393C695.24 61.7993 696.74 67.1398 696.74 73.2598H670.46C670.46 70.1399 669.561 67.6799 667.761 65.8799C665.961 63.9599 663.38 63 660.021 63C656.901 63 654.38 63.7798 652.46 65.3398C650.66 66.7798 649.761 68.6998 649.761 71.0996C649.761 74.9396 653 77.5795 659.48 79.0195L676.221 82.6201C683.661 84.1801 689.301 86.8798 693.141 90.7197C697.101 94.4397 699.08 99.8997 699.08 107.1C699.08 113.46 697.4 118.98 694.04 123.66C690.68 128.34 686 131.94 680 134.46C674 136.86 667.1 138.06 659.301 138.06C647.421 138.06 638 135.24 631.04 129.6C624.08 123.84 620.601 116.399 620.601 107.279H646.881C647.121 110.399 648.38 112.86 650.66 114.66C652.94 116.46 656.181 117.359 660.381 117.359C664.7 117.359 667.88 116.64 669.92 115.2C671.96 113.76 672.98 111.9 672.98 109.62C672.98 108.3 672.44 106.98 671.36 105.66C670.4 104.34 668.241 103.32 664.881 102.6L648.32 99C640.04 97.2 633.86 94.3194 629.78 90.3594C625.7 86.2794 623.66 80.2792 623.66 72.3594C623.66 66.1195 625.281 60.8395 628.521 56.5195C631.88 52.0796 636.381 48.7194 642.021 46.4395C647.66 44.0395 654.08 42.8399 661.28 42.8398ZM742.364 42.8398C749.324 42.8398 755.445 44.1001 760.725 46.6201C766.125 49.1401 770.325 52.6793 773.325 57.2393C776.325 61.7993 777.825 67.1398 777.825 73.2598H751.545C751.545 70.1398 750.645 67.6799 748.845 65.8799C747.045 63.9599 744.464 63 741.104 63C737.985 63 735.465 63.7799 733.545 65.3398C731.745 66.7798 730.845 68.6997 730.845 71.0996C730.845 74.9395 734.085 77.5795 740.564 79.0195L757.305 82.6201C764.745 84.1801 770.385 86.8798 774.225 90.7197C778.185 94.4397 780.165 99.8997 780.165 107.1C780.165 113.46 778.485 118.98 775.125 123.66C771.765 128.34 767.085 131.94 761.085 134.46C755.085 136.86 748.185 138.06 740.385 138.06C728.505 138.06 719.085 135.24 712.125 129.6C705.165 123.84 701.685 116.399 701.685 107.279H727.965C728.205 110.399 729.465 112.86 731.745 114.66C734.025 116.46 737.265 117.359 741.465 117.359C745.785 117.359 748.965 116.64 751.005 115.2C753.045 113.76 754.064 111.9 754.064 109.62C754.064 108.3 753.524 106.98 752.444 105.66C751.484 104.34 749.325 103.32 745.965 102.6L729.404 99C721.124 97.2 714.944 94.3193 710.864 90.3594C706.785 86.2794 704.745 80.2791 704.745 72.3594C704.745 66.1195 706.365 60.8395 709.604 56.5195C712.964 52.0796 717.465 48.7195 723.104 46.4395C728.744 44.0395 735.164 42.8399 742.364 42.8398ZM146.587 45.7197H163.688V68.7598H146.587V135.72H118.867V68.7598H101.768V45.7197H118.867V17.8193H146.587V45.7197ZM377.348 78.1201L406.507 45.7197H441.247L407.407 81.3594L440.167 135.72H408.127L387.967 102.06L377.348 113.22V135.72H349.627V0H377.348V78.1201ZM208.005 98.46C202.005 98.94 197.746 99.9597 195.226 101.52C192.826 102.96 191.625 105.12 191.625 108C191.625 111.24 192.646 113.64 194.686 115.2C196.726 116.76 199.845 117.54 204.045 117.54C209.325 117.54 213.645 116.28 217.005 113.76C220.365 111.12 222.045 107.22 222.045 102.06V97.2002L208.005 98.46ZM572.146 65.3398C567.466 65.3398 563.625 66.24 560.625 68.04C557.745 69.84 555.585 72.6601 554.146 76.5C553.62 77.8564 553.192 79.3565 552.858 81H590.325C590.325 76.2 588.705 72.4202 585.465 69.6602C582.225 66.7802 577.785 65.3399 572.146 65.3398Z" fill="black"/>
</svg>
