<svg width="100" height="139" viewBox="0 0 100 139" fill="none" xmlns="http://www.w3.org/2000/svg">
<path d="M54.1377 137.9C52.4476 138.005 50.7178 138.06 48.9482 138.06C39.1083 138.06 30.4683 136.38 23.0283 133.02C15.7084 129.66 10.0087 124.92 5.92871 118.8C3.69968 115.287 2.09739 111.452 1.12305 107.293L54.1377 137.9ZM66.0361 136.141C64.3661 136.55 62.6466 136.895 60.877 137.173L0.258789 102.176C0.11282 100.819 0.0275643 99.4322 0 98.0146L66.0361 136.141ZM75.5059 132.876C74.1513 133.496 72.7546 134.061 71.3154 134.57L6.27539 97.0195H13.3994L75.5059 132.876ZM83.2393 128.495C82.1298 129.276 80.9692 130.016 79.7559 130.711L47.5381 112.11C48.0576 112.129 48.5875 112.14 49.1279 112.14C50.9985 112.14 52.7584 112.042 54.4072 111.85L83.2393 128.495ZM50.9287 0C60.5285 4.9539e-05 68.8087 1.68009 75.7686 5.04004C82.7284 8.40002 88.0681 13.1399 91.7881 19.2598C95.6281 25.3798 97.5479 32.64 97.5479 41.04H68.5684C68.5684 36.36 66.948 32.6996 63.708 30.0596C60.468 27.2997 56.0882 25.9199 50.5684 25.9199C44.6884 25.9199 39.9486 27.1802 36.3486 29.7002C32.8687 32.2202 31.1279 35.6997 31.1279 40.1396C31.1279 44.2196 32.2082 47.34 34.3682 49.5C36.5281 51.6599 39.9482 53.2197 44.6279 54.1797L64.6084 58.3193C76.4884 60.7193 85.3084 64.9199 91.0684 70.9199C96.8283 76.7999 99.708 85.0202 99.708 95.5801C99.7079 104.1 97.6081 111.6 93.4082 118.08C91.5059 120.961 89.2451 123.544 86.6289 125.834L60.2637 110.612C61.9396 110.067 63.4482 109.377 64.7881 108.54C68.628 106.02 70.5478 102.66 70.5479 98.46C70.5479 94.74 69.588 91.8593 67.668 89.8193C65.868 87.7796 62.7481 86.34 58.3086 85.5L37.9688 81.3594C26.0889 78.9594 17.0887 74.3996 10.9688 67.6797C4.96875 60.9597 1.96875 52.1397 1.96875 41.2197C1.96875 33.1797 4.06855 26.0995 8.26855 19.9795C12.4685 13.7397 18.2281 8.87935 25.5479 5.39941C32.9879 1.79942 41.4487 0 50.9287 0ZM28.9697 97.1631C28.9819 98.834 29.2069 100.373 29.6445 101.779L21.3994 97.0195H28.7207L28.9697 97.1631Z" fill="black"/>
</svg>
